<svg xmlns="http://www.w3.org/2000/svg" version="1.1" xmlns:xlink="http://www.w3.org/1999/xlink" xmlns:svgjs="http://svgjs.dev/svgjs" width="100%" height="100%" viewBox="0 0 1000 600"><rect width="1000" height="600" x="0" y="0" fill="white"/><g><rect width="333.3333333333333" height="333.3333333333333" rx="13.333333333333334" ry="13.333333333333334" y="241.31892959606645" fill="black" transform="matrix(0.57052418023364,0,0,0.5705241802336402,0,67.23432560544283)" x="219.0967559814453"/><path d="M369.07086687559666 344.73067785095026Q369.89959613086444 342.444528181246 369.89959613086444 339.986917286314L369.89959613086444 339.986917286314Q369.89959613086444 336.90061523221334 368.6707906833984 334.4430043372813L368.6707906833984 334.4430043372813Q356.32558246699574 332.9855839228449 344.38045044279124 332.9855839228449L344.38045044279124 332.9855839228449Q326.8914054695541 332.9855839228449 312.9173156134872 334.2143893703109L312.9173156134872 334.2143893703109Q296.8571141838151 335.6718097847473 284.94055903048195 341.4157608298791L284.94055903048195 341.4157608298791Q278.7679549222806 344.5020628839798 275.3673072885956 349.64589964081426Q271.9666596549106 354.78973639764877 271.9666596549106 361.3909935689196L271.9666596549106 361.3909935689196L271.9666596549106 454.8087844472077Q271.9666596549106 466.1252253122435 275.3673072885956 472.0692144534744Q278.7679549222806 478.04178046557666 286.4837100575323 480.52796823138Q294.199465192784 482.985579126312 308.37359314495006 482.985579126312L308.37359314495006 482.985579126312Q344.6090654097617 482.985579126312 370.5282872900331 474.955478411476L370.5282872900331 474.955478411476Q371.5570546414 472.2978294204448 371.5570546414 470.4403328138102L371.5570546414 470.4403328138102Q371.5570546414 468.58283620717555 370.32824919393397 464.66780489780706L370.32824919393397 464.66780489780706Q363.12687773436573 466.72533960054085 346.75233072510935 468.78287430327464Q330.4063605867243 470.8404090060084 316.403693859786 470.8404090060084L316.403693859786 470.8404090060084Q308.37359314495006 470.8404090060084 304.2585237394825 469.21152736634417Q300.1434543340149 467.5540688558086 298.4002652108654 463.55330693382626Q296.65707608771595 459.5239681409726 296.65707608771595 451.92252048920614L296.65707608771595 451.92252048920614L296.65707608771595 362.41976092028654Q296.45703799161686 350.0745527038838 306.9447496013849 347.18828874588223L306.9447496013849 347.18828874588223Q320.3187251691545 343.47329553261295 346.6666001124955 343.47329553261295L346.6666001124955 343.47329553261295Q362.8982627673953 343.47329553261295 369.07086687559666 344.73067785095026L369.07086687559666 344.73067785095026ZM487.1790741866901 384.4239514911895Q475.66259522555515 384.4239514911895 457.85920467273377 385.6527569386555Q440.0558141199122 386.9101392569928 434.91197736307777 388.3389828005579L434.91197736307777 388.3389828005579Q434.3118630747804 390.1964794071926 434.3118630747804 391.82536104685687L434.3118630747804 391.82536104685687Q434.3118630747804 394.3115488126602 435.1405923300482 395.7403923562253L435.1405923300482 395.7403923562253L472.5762931714545 395.34031616402706Q474.83386597028743 395.34031616402706 474.83386597028743 406.6567570290629L474.83386597028743 406.6567570290629L474.83386597028743 453.15132593667215Q474.83386597028743 460.1526593001413 472.0619094957711 463.7533450299254Q469.28995302125475 467.35403075970953 461.4598904025178 469.41156546244326L461.4598904025178 469.41156546244326Q452.8296753993844 471.6691382612762 434.91197736307777 471.6691382612762L434.91197736307777 471.6691382612762Q427.11049161521214 471.6691382612762 422.8811147262594 469.9259491381267Q418.6803147081779 468.18276001497725 416.9085487141572 463.9533831260245Q415.1653595910077 459.7240062370717 415.1653595910077 451.92252048920614L415.1653595910077 451.92252048920614L415.1653595910077 362.41976092028654Q414.96532149490855 350.0745527038838 425.4530331046766 347.18828874588223L425.4530331046766 347.18828874588223Q437.79824132107933 343.7019104995834 464.14611626442024 343.2732574365138L464.14611626442024 343.2732574365138Q483.2640428773217 343.7019104995834 489.66526195249344 344.73067785095026L489.66526195249344 344.73067785095026Q490.4654143368899 342.444528181246 490.4654143368899 339.986917286314L490.4654143368899 339.986917286314Q490.4654143368899 336.90061523221334 489.2366088894239 334.4430043372813L489.2366088894239 334.4430043372813Q476.89140067302117 332.9855839228449 462.9173108169542 332.9855839228449L462.9173108169542 332.9855839228449Q454.6871720060192 332.9855839228449 448.0001842221343 333.185622018944Q441.3131964382495 333.41423698591444 433.2830957234135 334.0143512742118L433.2830957234135 334.0143512742118Q424.2242276572106 334.84308052947955 417.3372017772267 336.5005390400151Q410.45017589724273 338.12942067967936 404.048956822071 341.21572273378L404.048956822071 341.21572273378Q397.47627652167137 344.30202478788067 393.9898982753725 349.64589964081426Q390.4749431582023 355.01835136461915 390.4749431582023 361.3909935689196L390.4749431582023 361.3909935689196L390.4749431582023 454.8087844472077Q390.27490506210313 465.2964960569757 393.36120711620384 471.2690620690779Q396.44750917030456 477.2130512103089 403.5345731463875 479.89927707221136Q410.6502139933419 482.5855029341137 423.1954603058437 482.5855029341137L423.1954603058437 482.5855029341137Q463.94607816832115 482.5855029341137 481.8351993337566 476.18428385894197L481.8351993337566 476.18428385894197Q499.5242824030928 469.6116035585424 499.5242824030928 454.180093288039L499.5242824030928 454.180093288039L499.5242824030928 393.28278146129327Q499.7243204991919 389.1677120558257 498.80986063131024 387.31021544919105Q497.8954007634286 385.4527188425564 495.40921299762533 384.93833516687295Q492.95160210269324 384.4239514911895 487.1790741866901 384.4239514911895L487.1790741866901 384.4239514911895Z " fill="white" transform="matrix(0.57052418023364,0,0,0.5705241802336402,0,67.23432560544283)"/><path d="M732.8676350640732 344.73067785095026Q733.696364319341 342.444528181246 733.696364319341 339.986917286314L733.696364319341 339.986917286314Q733.696364319341 336.90061523221334 732.467558871875 334.4430043372813L732.467558871875 334.4430043372813Q720.1223506554722 332.9855839228449 708.1772186312678 332.9855839228449L708.1772186312678 332.9855839228449Q690.6881736580306 332.9855839228449 676.7140838019636 334.2143893703109L676.7140838019636 334.2143893703109Q660.6538823722917 335.6718097847473 648.7373272189584 341.4157608298791L648.7373272189584 341.4157608298791Q642.5647231107571 344.5020628839798 639.1640754770722 349.64589964081426Q635.763427843387 354.78973639764877 635.763427843387 361.3909935689196L635.763427843387 361.3909935689196L635.763427843387 454.8087844472077Q635.763427843387 466.1252253122435 639.1640754770722 472.0692144534744Q642.5647231107571 478.04178046557666 650.2804782460088 480.52796823138Q657.9962333812605 482.985579126312 672.1703613334266 482.985579126312L672.1703613334266 482.985579126312Q708.4058335982382 482.985579126312 734.3250554785096 474.955478411476L734.3250554785096 474.955478411476Q735.3538228298765 472.2978294204448 735.3538228298765 470.4403328138102L735.3538228298765 470.4403328138102Q735.3538228298765 468.58283620717555 734.1250173824105 464.66780489780706L734.1250173824105 464.66780489780706Q726.9236459228423 466.72533960054085 710.5490989135859 468.78287430327464Q694.2031287752009 470.8404090060084 680.2004620482626 470.8404090060084L680.2004620482626 470.8404090060084Q672.1703613334266 470.8404090060084 668.0552919279589 469.21152736634417Q663.9402225224915 467.5540688558086 662.197033399342 463.55330693382626Q660.4538442761925 459.5239681409726 660.4538442761925 451.92252048920614L660.4538442761925 451.92252048920614L660.4538442761925 362.41976092028654Q660.2538061800934 350.0745527038838 670.7415177898615 347.18828874588223L670.7415177898615 347.18828874588223Q684.1154933576311 343.47329553261295 710.463368300972 343.47329553261295L710.463368300972 343.47329553261295Q726.6950309558719 343.47329553261295 732.8676350640732 344.73067785095026L732.8676350640732 344.73067785095026ZM839.2593253179326 396.369083515394Q839.2593253179326 387.5102535452902 836.7731375521292 382.7950698515252Q834.3155266571972 378.051309286889 828.6573062246794 376.10808206764045Q822.9990857921615 374.1362779775206 812.5113741823934 374.1362779775206L812.5113741823934 374.1362779775206Q781.019662482218 374.1362779775206 766.4168814669823 379.0800766382559L766.4168814669823 379.0800766382559Q752.0141385478458 384.2239133950904 752.0141385478458 396.9691978036913L752.0141385478458 396.9691978036913L752.0141385478458 459.9526212040421Q752.0141385478458 468.78287430327464 754.5860569262632 473.52663486791084Q757.1579753046803 478.2418185616758 762.9305032206835 480.29935326440955Q768.6744542658153 482.35688796714334 779.1621658755834 482.35688796714334L779.1621658755834 482.35688796714334Q810.8539156718579 482.35688796714334 825.0566204948952 477.2130512103089L825.0566204948952 477.2130512103089Q839.2593253179326 471.8691763573753 839.2593253179326 459.5239681409726L839.2593253179326 459.5239681409726L839.2593253179326 396.369083515394ZM815.7977143325933 458.69523888570484Q815.9977524286924 466.72533960054085 810.8539156718579 470.01167975074065L810.8539156718579 470.01167975074065Q805.9101170111225 473.0979818048413 787.820957749588 473.52663486791084L787.820957749588 473.52663486791084Q780.4195481939206 473.52663486791084 777.9333604281173 470.2402947177111Q775.4757495331853 466.92537769664 775.4757495331853 457.6664715343379L775.4757495331853 457.6664715343379L775.4757495331853 397.7979270589591Q775.2757114370862 389.56778824802393 780.8196243861189 386.08141000172503L780.8196243861189 386.08141000172503Q785.9634611429534 382.7950698515252 803.8525823083887 382.7950698515252L803.8525823083887 382.7950698515252Q810.6538775757588 382.7950698515252 813.225795954176 386.16714061433896Q815.7977143325933 389.56778824802393 815.7977143325933 398.82669441032596L815.7977143325933 398.82669441032596L815.7977143325933 458.69523888570484ZM970.5128932298253 478.67047162474535Q971.1415843889939 476.81297501811065 971.1415843889939 475.15551650757516L971.1415843889939 475.15551650757516Q971.1415843889939 472.69790561264307 970.3128551337262 471.2690620690779L970.3128551337262 471.2690620690779L955.9101122145896 471.2690620690779Q953.8525775118559 471.2690620690779 953.8525775118559 460.3526973962404L953.8525775118559 460.3526973962404L953.8525775118559 342.0444519890478Q954.052615607955 337.7293444874811 953.3381938361724 335.9861553643317Q952.6237720643899 334.2143893703109 950.1661611694578 333.70000569462746Q947.6799734036546 333.185622018944 941.5073692954531 333.185622018944L941.5073692954531 333.185622018944Q927.3046644724158 333.185622018944 913.730650808547 337.10065332831243L913.730650808547 337.10065332831243Q913.1305365202497 338.95814993494713 913.1305365202497 340.6156084454827L913.1305365202497 340.6156084454827Q913.1305365202497 343.07321934041465 913.9306889046462 344.5020628839798L913.9306889046462 344.5020628839798L928.1333937276835 344.1019866917816Q930.3909665265164 344.1019866917816 930.3909665265164 355.4184275568174L930.3909665265164 355.4184275568174L930.3909665265164 374.1362779775206Q903.8716303579478 374.96500723278837 884.3250506819767 378.68000044605765L884.3250506819767 378.68000044605765Q866.2073145495709 381.96634059625745 866.2073145495709 398.2265801220286L866.2073145495709 398.2265801220286L866.2073145495709 466.92537769664Q866.2073145495709 475.3841314745455 870.9510751142071 478.9848172043296Q875.666258807972 482.5855029341137 886.9826996730079 482.5855029341137L886.9826996730079 482.5855029341137Q889.0402343757416 482.5855029341137 893.9840330364771 482.1568498710442L893.9840330364771 482.1568498710442Q902.2141718474121 481.1280825196773 908.1867378595144 479.6992389761122L908.1867378595144 479.6992389761122Q915.5881474151817 477.8417423694775 922.78951887475 475.7842076667438L922.78951887475 475.7842076667438L930.3909665265164 473.72667296401Q930.1909284304173 478.04178046557666 930.9053502021999 479.7849695887261Q931.6483488448538 481.5567355827469 934.1059597397858 482.0711192584303Q936.5635706347178 482.5855029341137 942.7361747429192 482.5855029341137L942.7361747429192 482.5855029341137Q956.9388795659565 482.5855029341137 970.5128932298253 478.67047162474535L970.5128932298253 478.67047162474535ZM930.3909665265164 464.46776680170797Q910.0442344661491 470.2402947177111 901.1854044960452 470.2402947177111L901.1854044960452 470.2402947177111Q889.6689255349103 470.2402947177111 889.6689255349103 461.7815409398055L889.6689255349103 461.7815409398055L889.6689255349103 398.4266182181277Q889.6689255349103 392.85412839822374 892.4408820094267 390.3965175032917Q895.2128384839431 387.93890660835973 903.4429772948781 386.2814480978242L903.4429772948781 386.2814480978242Q911.4730780097142 384.6239895872886 930.3909665265164 383.5952222359217L930.3909665265164 383.5952222359217L930.3909665265164 464.46776680170797ZM1067.217024258313 466.1252253122435Q1060.8443820540126 467.7541069519077 1046.7559847144605 470.01167975074065Q1032.6675873749082 472.2978294204448 1024.4374485639732 472.2978294204448L1024.4374485639732 472.2978294204448Q1015.1785424016712 472.2978294204448 1012.1779709601843 469.81164165464156Q1009.205976389569 467.35403075970953 1009.205976389569 459.5239681409726L1009.205976389569 459.5239681409726L1009.205976389569 436.0623571556332Q1027.9238268102722 434.8335517081672 1050.7567466364428 431.3471734618683L1050.7567466364428 431.3471734618683Q1060.2442677657154 429.2896387591345 1064.5593752672821 424.46014758188437Q1068.8744827688488 419.60207953376295 1068.8744827688488 410.97186453062955L1068.8744827688488 410.97186453062955L1068.8744827688488 396.369083515394Q1068.8744827688488 387.5102535452902 1066.4168718739165 382.7950698515252Q1063.9306841081134 378.051309286889 1058.2724636755952 376.10808206764045Q1052.6142432430775 374.1362779775206 1042.1265316333095 374.1362779775206L1042.1265316333095 374.1362779775206Q1012.4923165397687 374.1362779775206 999.3183790680981 379.0800766382559L999.3183790680981 379.0800766382559Q985.7443654042296 384.2239133950904 985.7443654042296 396.9691978036913L985.7443654042296 396.9691978036913L985.7443654042296 467.5540688558086Q985.7443654042296 475.58416957064463 990.8024715484501 479.07054781694353Q995.8320008217993 482.5855029341137 1006.9484035907361 482.5855029341137L1006.9484035907361 482.5855029341137Q1039.8689588344764 482.5855029341137 1067.4456392252835 475.3841314745455L1067.4456392252835 475.3841314745455Q1068.24579160968 473.926711060109 1068.24579160968 471.2690620690779L1068.24579160968 471.2690620690779Q1068.24579160968 468.18276001497725 1067.217024258313 466.1252253122435L1067.217024258313 466.1252253122435ZM1009.205976389569 397.7979270589591Q1008.8059001973708 389.56778824802393 1013.9497369542052 386.16714061433896Q1019.0935737110395 382.7950698515252 1033.496316630176 382.7950698515252L1033.496316630176 382.7950698515252Q1040.2690350266748 382.7950698515252 1042.840953405092 385.9671025182398Q1045.4128717835092 389.1677120558257 1045.4128717835092 397.7979270589591L1045.4128717835092 397.7979270589591L1045.4128717835092 410.3431733714609Q1045.4128717835092 416.94443054273177 1042.755222792478 419.4020414376638Q1040.0689969305758 421.8882292034671 1031.6388200235415 423.71714893923047L1031.6388200235415 423.71714893923047Q1022.9800281495367 425.374607449766 1009.205976389569 426.60341289723203L1009.205976389569 426.60341289723203L1009.205976389569 397.7979270589591ZM1189.6403390709734 384.4239514911895Q1178.1238601098385 384.4239514911895 1160.3204695570168 385.6527569386555Q1142.5456558750666 386.9101392569928 1137.4018191182322 388.3389828005579L1137.4018191182322 388.3389828005579Q1136.7731279590635 390.1964794071926 1136.7731279590635 391.82536104685687L1136.7731279590635 391.82536104685687Q1136.7731279590635 394.3115488126602 1137.6018572143312 395.7403923562253L1137.6018572143312 395.7403923562253L1175.0375580557377 395.34031616402706Q1177.2951308545705 395.34031616402706 1177.2951308545705 406.6567570290629L1177.2951308545705 406.6567570290629L1177.2951308545705 453.15132593667215Q1177.2951308545705 460.1526593001413 1174.5231743800541 463.7533450299254Q1171.751217905538 467.35403075970953 1163.921155286801 469.41156546244326L1163.921155286801 469.41156546244326Q1155.2909402836676 471.6691382612762 1137.4018191182322 471.6691382612762L1137.4018191182322 471.6691382612762Q1129.5717564994952 471.6691382612762 1125.3423796105426 469.9259491381267Q1121.1415795924609 468.18276001497725 1119.3983904693116 463.9533831260245Q1117.6266244752906 459.7240062370717 1117.6266244752906 451.92252048920614L1117.6266244752906 451.92252048920614L1117.6266244752906 362.41976092028654Q1117.4265863791916 350.0745527038838 1127.9142979889598 347.18828874588223L1127.9142979889598 347.18828874588223Q1140.2595062053624 343.7019104995834 1166.6073811487033 343.2732574365138L1166.6073811487033 343.2732574365138Q1185.753884632476 343.7019104995834 1192.1265268367765 344.73067785095026L1192.1265268367765 344.73067785095026Q1192.9552560920442 342.444528181246 1192.9552560920442 339.986917286314L1192.9552560920442 339.986917286314Q1192.9552560920442 336.90061523221334 1191.697873773707 334.4430043372813L1191.697873773707 334.4430043372813Q1179.3526655573041 332.9855839228449 1165.3785757012374 332.9855839228449L1165.3785757012374 332.9855839228449Q1157.1484368903023 332.9855839228449 1150.4614491064174 333.185622018944Q1143.7744613225327 333.41423698591444 1135.7443606076968 334.0143512742118L1135.7443606076968 334.0143512742118Q1126.6854925414937 334.84308052947955 1119.7984666615098 336.5005390400151Q1112.911440781526 338.12942067967936 1106.5387985772254 341.21572273378L1106.5387985772254 341.21572273378Q1099.9375414059546 344.30202478788067 1096.4511631596556 349.64589964081426Q1092.9362080424853 355.01835136461915 1092.9362080424853 361.3909935689196L1092.9362080424853 361.3909935689196L1092.9362080424853 454.8087844472077Q1092.7361699463863 465.2964960569757 1095.8224720004869 471.2690620690779Q1098.9087740545879 477.2130512103089 1106.024414901542 479.89927707221136Q1113.111478877625 482.5855029341137 1125.656725190127 482.5855029341137L1125.656725190127 482.5855029341137Q1166.4073430526041 482.5855029341137 1184.2964642180395 476.18428385894197L1184.2964642180395 476.18428385894197Q1201.985547287376 469.6116035585424 1201.985547287376 454.180093288039L1201.985547287376 454.180093288039L1201.985547287376 393.28278146129327Q1202.2141622543463 389.1677120558257 1201.2711255155934 387.31021544919105Q1200.356665647712 385.4527188425564 1197.8704778819083 384.93833516687295Q1195.4128669869763 384.4239514911895 1189.6403390709734 384.4239514911895L1189.6403390709734 384.4239514911895ZM1306.7197790307 466.1252253122435Q1300.3471368263995 467.7541069519077 1286.2587394868474 470.01167975074065Q1272.1703421472953 472.2978294204448 1263.94020333636 472.2978294204448L1263.94020333636 472.2978294204448Q1254.6812971740578 472.2978294204448 1251.6807257325713 469.81164165464156Q1248.7087311619557 467.35403075970953 1248.7087311619557 459.5239681409726L1248.7087311619557 459.5239681409726L1248.7087311619557 436.0623571556332Q1267.4265815826589 434.8335517081672 1290.2595014088297 431.3471734618683L1290.2595014088297 431.3471734618683Q1299.7184456672308 429.2896387591345 1304.0621300396688 424.46014758188437Q1308.3772375412354 419.60207953376295 1308.3772375412354 410.97186453062955L1308.3772375412354 410.97186453062955L1308.3772375412354 396.369083515394Q1308.3772375412354 387.5102535452902 1305.8910497754318 382.7950698515252Q1303.4334388805 378.051309286889 1297.7752184479823 376.10808206764045Q1292.116998015464 374.1362779775206 1281.6292864056963 374.1362779775206L1281.6292864056963 374.1362779775206Q1251.9950713121557 374.1362779775206 1238.821133840485 379.0800766382559L1238.821133840485 379.0800766382559Q1225.2471201766161 384.2239133950904 1225.2471201766161 396.9691978036913L1225.2471201766161 396.9691978036913L1225.2471201766161 467.5540688558086Q1225.2471201766161 475.58416957064463 1230.2766494499656 479.07054781694353Q1235.334755594186 482.5855029341137 1246.4511583631229 482.5855029341137L1246.4511583631229 482.5855029341137Q1279.371713606863 482.5855029341137 1306.919817126799 475.3841314745455L1306.919817126799 475.3841314745455Q1307.7485463820667 473.926711060109 1307.7485463820667 471.2690620690779L1307.7485463820667 471.2690620690779Q1307.7485463820667 468.18276001497725 1306.7197790307 466.1252253122435L1306.7197790307 466.1252253122435ZM1248.7087311619557 397.7979270589591Q1248.280078098886 389.56778824802393 1253.4239148557208 386.16714061433896Q1258.5677516125552 382.7950698515252 1272.9704945316917 382.7950698515252L1272.9704945316917 382.7950698515252Q1279.7717897990615 382.7950698515252 1282.3437081774787 385.9671025182398Q1284.9156265558959 389.1677120558257 1284.9156265558959 397.7979270589591L1284.9156265558959 397.7979270589591L1284.9156265558959 410.3431733714609Q1284.9156265558959 416.94443054273177 1282.2294006939937 419.4020414376638Q1279.5717517029625 421.8882292034671 1271.1415747959281 423.71714893923047L1271.1415747959281 423.71714893923047Q1262.4827829219234 425.374607449766 1248.7087311619557 426.60341289723203L1248.7087311619557 426.60341289723203L1248.7087311619557 397.7979270589591ZM1412.8828543175891 466.1252253122435Q1406.5102121132882 467.7541069519077 1392.421814773736 470.01167975074065Q1378.333417434184 472.2978294204448 1370.103278623249 472.2978294204448L1370.103278623249 472.2978294204448Q1360.844372460947 472.2978294204448 1357.84380101946 469.81164165464156Q1354.8718064488448 467.35403075970953 1354.8718064488448 459.5239681409726L1354.8718064488448 459.5239681409726L1354.8718064488448 436.0623571556332Q1373.589656869548 434.8335517081672 1396.4225766957188 431.3471734618683L1396.4225766957188 431.3471734618683Q1405.9100978249912 429.2896387591345 1410.225205326558 424.46014758188437Q1414.5403128281246 419.60207953376295 1414.5403128281246 410.97186453062955L1414.5403128281246 410.97186453062955L1414.5403128281246 396.369083515394Q1414.5403128281246 387.5102535452902 1412.0827019331923 382.7950698515252Q1409.5965141673892 378.051309286889 1403.9382937348714 376.10808206764045Q1398.2800733023532 374.1362779775206 1387.792361692585 374.1362779775206L1387.792361692585 374.1362779775206Q1358.1581465990444 374.1362779775206 1344.984209127374 379.0800766382559L1344.984209127374 379.0800766382559Q1331.4101954635053 384.2239133950904 1331.4101954635053 396.9691978036913L1331.4101954635053 396.9691978036913L1331.4101954635053 467.5540688558086Q1331.4101954635053 475.58416957064463 1336.4683016077256 479.07054781694353Q1341.497830881075 482.5855029341137 1352.6142336500116 482.5855029341137L1352.6142336500116 482.5855029341137Q1385.5347888937522 482.5855029341137 1413.1114692845595 475.3841314745455L1413.1114692845595 475.3841314745455Q1413.9116216689558 473.926711060109 1413.9116216689558 471.2690620690779L1413.9116216689558 471.2690620690779Q1413.9116216689558 468.18276001497725 1412.8828543175891 466.1252253122435L1412.8828543175891 466.1252253122435ZM1354.8718064488448 397.7979270589591Q1354.4717302566464 389.56778824802393 1359.6155670134808 386.16714061433896Q1364.7594037703152 382.7950698515252 1379.1621466894517 382.7950698515252L1379.1621466894517 382.7950698515252Q1385.9348650859506 382.7950698515252 1388.5067834643678 385.9671025182398Q1391.078701842785 389.1677120558257 1391.078701842785 397.7979270589591L1391.078701842785 397.7979270589591L1391.078701842785 410.3431733714609Q1391.078701842785 416.94443054273177 1388.4210528517538 419.4020414376638Q1385.7348269898516 421.8882292034671 1377.3046500828173 423.71714893923047L1377.3046500828173 423.71714893923047Q1368.6458582088126 425.374607449766 1354.8718064488448 426.60341289723203L1354.8718064488448 426.60341289723203L1354.8718064488448 397.7979270589591ZM1436.5445033990272 344.1019866917816Q1438.8306530687314 344.1019866917816 1438.8306530687314 355.4184275568174L1438.8306530687314 355.4184275568174L1438.8306530687314 479.07054781694353Q1438.8306530687314 482.5855029341137 1442.3170313150304 482.5855029341137L1442.3170313150304 482.5855029341137Q1451.1758612851345 482.5855029341137 1458.9773470329997 480.29935326440955L1458.9773470329997 480.29935326440955Q1462.2636871831996 479.07054781694353 1462.2636871831996 476.18428385894197L1462.2636871831996 476.18428385894197L1462.2636871831996 436.0623571556332Q1472.7799756638387 435.8623190595341 1477.4951593576038 435.0335898042663L1477.4951593576038 435.0335898042663L1492.526593435909 473.72667296401Q1494.3840900425434 479.2705859130426 1496.012971682208 480.92804442357817L1496.012971682208 480.92804442357817Q1497.0417390335751 481.9568117749451 1499.013543123695 482.27115735452946Q1500.9567703429434 482.5855029341137 1505.27187784451 482.5855029341137L1505.27187784451 482.5855029341137Q1519.4745826675476 482.5855029341137 1533.0485963314159 478.67047162474535L1533.0485963314159 478.67047162474535Q1533.677287490585 477.0130131142098 1533.677287490585 475.3841314745455L1533.677287490585 475.3841314745455Q1533.677287490585 473.72667296401 1532.848558235317 471.2690620690779L1532.848558235317 471.2690620690779L1518.6458534122798 471.6691382612762Q1517.2170098687143 471.6691382612762 1515.5595513581789 469.41156546244326L1515.5595513581789 469.41156546244326Q1514.5307840068122 467.95414504800686 1511.4444819527116 460.3526973962404L1511.4444819527116 460.3526973962404L1500.3280791837747 432.17590271713607L1504.4431485892424 431.3471734618683Q1513.9306697185148 429.2896387591345 1518.2457772200814 424.46014758188437Q1522.560884721648 419.60207953376295 1522.560884721648 410.97186453062955L1522.560884721648 410.97186453062955L1522.560884721648 389.7678263441231Q1522.560884721648 381.33764943708877 1517.8171241570117 377.7369637073047Q1513.101940463247 374.1362779775206 1501.7854995982111 374.1362779775206L1501.7854995982111 374.1362779775206Q1495.1842424269403 374.1362779775206 1490.2690206370762 374.96500723278837L1490.2690206370762 374.96500723278837Q1485.3252219763408 375.593698391957 1475.9520083305538 378.051309286889Q1466.6073715556377 380.50892018182105 1462.2636871831996 381.96634059625745L1462.2636871831996 381.96634059625745L1462.2636871831996 342.0444519890478Q1462.49230215017 337.7293444874811 1461.7493035075163 335.9861553643317Q1461.0348817357335 334.2143893703109 1458.5772708408017 333.70000569462746Q1456.0910830749986 333.185622018944 1449.918478966797 333.185622018944L1449.918478966797 333.185622018944Q1435.7443510146309 333.185622018944 1422.1417604798912 337.10065332831243L1422.1417604798912 337.10065332831243Q1421.5416461915934 338.95814993494713 1421.5416461915934 340.6156084454827L1421.5416461915934 340.6156084454827Q1421.5416461915934 343.07321934041465 1422.3703754468615 344.5020628839798L1422.3703754468615 344.5020628839798L1436.5445033990272 344.1019866917816ZM1462.2636871831996 391.4252848546586Q1478.72396480507 386.4814861939233 1487.5827947751736 386.4814861939233L1487.5827947751736 386.4814861939233Q1499.0992737363085 386.4814861939233 1499.0992737363085 394.9116631009575L1499.0992737363085 394.9116631009575L1499.0992737363085 410.1431352753618Q1499.0992737363085 414.88689583999803 1497.9847757723278 417.34450673493006Q1496.8417009374757 419.83069450073333 1494.0697444629595 421.1452305608133Q1491.297787988443 422.4883434917645 1485.3252219763408 423.71714893923047L1485.3252219763408 423.71714893923047Q1474.2088192074043 426.0032986089347 1462.2636871831996 426.60341289723203L1462.2636871831996 426.60341289723203L1462.2636871831996 391.4252848546586Z " fill="black" transform="matrix(0.57052418023364,0,0,0.5705241802336402,0,67.23432560544283)"/></g></svg>